<?xml version="1.0" encoding="UTF-8" standalone="no"?>
<!-- Created with Inkscape (http://www.inkscape.org/) -->

<svg
   xmlns:dc="http://purl.org/dc/elements/1.1/"
   xmlns:cc="http://creativecommons.org/ns#"
   xmlns:rdf="http://www.w3.org/1999/02/22-rdf-syntax-ns#"
   xmlns:svg="http://www.w3.org/2000/svg"
   xmlns="http://www.w3.org/2000/svg"
   xmlns:sodipodi="http://sodipodi.sourceforge.net/DTD/sodipodi-0.dtd"
   xmlns:inkscape="http://www.inkscape.org/namespaces/inkscape"
   width="130"
   height="34"
   viewBox="0 0 34.395833 8.9958336"
   version="1.1"
   id="svg8"
   inkscape:version="0.92.3 (2405546, 2018-03-11)">
  <defs
     id="defs2" />
  <sodipodi:namedview
     id="base"
     pagecolor="#ffffff"
     bordercolor="#666666"
     borderopacity="1.0"
     inkscape:pageopacity="0.0"
     inkscape:pageshadow="2"
     inkscape:zoom="2.8"
     inkscape:cx="56.657704"
     inkscape:cy="25.664032"
     inkscape:document-units="px"
     inkscape:current-layer="layer1"
     showgrid="false"
     units="px"
     inkscape:snap-grids="true"
     inkscape:snap-text-baseline="true"
     showborder="false"
     inkscape:window-width="1366"
     inkscape:window-height="713"
     inkscape:window-x="270"
     inkscape:window-y="1105"
     inkscape:window-maximized="1" />
  <metadata
     id="metadata5">
    <rdf:RDF>
      <cc:Work
         rdf:about="">
        <dc:format>image/svg+xml</dc:format>
        <dc:type
           rdf:resource="http://purl.org/dc/dcmitype/StillImage" />
        <dc:title></dc:title>
      </cc:Work>
    </rdf:RDF>
  </metadata>
  <g
     inkscape:label="Layer 1"
     inkscape:groupmode="layer"
     id="layer1"
     transform="translate(0,-288.00415)">
    <g
       id="g903">
      <g
         style="fill:#47d5fe;fill-opacity:1"
         transform="matrix(0.01661072,0,0,0.01661072,-0.35437564,288.24972)"
         id="g71">
        <g
           style="fill:#47d5fe;fill-opacity:1"
           id="g14">
	<g
   style="fill:#47d5fe;fill-opacity:1"
   id="g12">
		<path
   style="fill:#47d5fe;fill-opacity:1"
   inkscape:connector-curvature="0"
   d="M 479.999,0 C 263.145,0 84.777,166.827 65.876,378.837 c 36.032,-50.816 80.171,-99.712 135.275,-155.925 4.096,-4.224 10.88,-4.309 15.083,-0.149 4.203,4.117 4.267,10.88 0.149,15.083 -8.299,8.448 -16.725,17.216 -25.195,26.091 -4.843,5.056 -9.579,10.091 -14.229,15.04 -0.853,0.917 -1.707,1.835 -2.56,2.773 C 106.303,354.667 57.62,418.133 22.27,496.96 c -2.411,5.376 0,11.691 5.355,14.101 1.429,0.64 2.901,0.939 4.373,0.939 4.075,0 7.979,-2.347 9.749,-6.293 12.587,-28.053 27.2,-54.08 43.627,-79.403 148.992,-3.819 284.608,-86.699 355.691,-218.581 1.771,-3.307 1.685,-7.296 -0.235,-10.539 -1.941,-3.2 -5.419,-5.184 -9.173,-5.184 h -39.509 l 70.848,-40.491 c 2.24,-1.28 3.968,-3.349 4.8,-5.781 15.189,-44.16 22.869,-89.6 22.869,-135.061 C 490.665,4.779 485.887,0 479.999,0 Z"
   id="path10" />

	</g>

</g>
        <g
           style="fill:#47d5fe;fill-opacity:1"
           id="g16">
</g>
        <g
           style="fill:#47d5fe;fill-opacity:1"
           id="g18">
</g>
        <g
           style="fill:#47d5fe;fill-opacity:1"
           id="g20">
</g>
        <g
           style="fill:#47d5fe;fill-opacity:1"
           id="g22">
</g>
        <g
           style="fill:#47d5fe;fill-opacity:1"
           id="g24">
</g>
        <g
           style="fill:#47d5fe;fill-opacity:1"
           id="g26">
</g>
        <g
           style="fill:#47d5fe;fill-opacity:1"
           id="g28">
</g>
        <g
           style="fill:#47d5fe;fill-opacity:1"
           id="g30">
</g>
        <g
           style="fill:#47d5fe;fill-opacity:1"
           id="g32">
</g>
        <g
           style="fill:#47d5fe;fill-opacity:1"
           id="g34">
</g>
        <g
           style="fill:#47d5fe;fill-opacity:1"
           id="g36">
</g>
        <g
           style="fill:#47d5fe;fill-opacity:1"
           id="g38">
</g>
        <g
           style="fill:#47d5fe;fill-opacity:1"
           id="g40">
</g>
        <g
           style="fill:#47d5fe;fill-opacity:1"
           id="g42">
</g>
        <g
           style="fill:#47d5fe;fill-opacity:1"
           id="g44">
</g>
      </g>
      <text
         id="text880"
         y="294.34662"
         x="9.9243832"
         style="font-style:normal;font-weight:normal;font-size:7.08082294px;line-height:1.25;font-family:sans-serif;letter-spacing:0px;word-spacing:0px;fill:#000000;fill-opacity:1;stroke:none;stroke-width:0.17702056"
         xml:space="preserve"><tspan
           style="stroke-width:0.17702056"
           y="294.34662"
           x="9.9243832"
           id="tspan878"
           sodipodi:role="line">Tweety</tspan></text>
    </g>
  </g>
</svg>
